<svg xmlns="http://www.w3.org/2000/svg" viewBox="0 0 339.68 47.79"><title>makerEngine-logo-white</title><g id="word-font"><path d="M-.75,7.14H4.64L15.45,27.72,26.06,7.14h5.41V44.87H25.75V21.34h-.13L17.73,35.46l-2.37,4.28L5.08,21.34H5V44.87H-.75Z"/><path d="M56.51,31.52H45.59L41,44.87H35L48.66,7.14h4.79L67.17,44.87h-6ZM54.81,26,51.12,14.87H51L47.33,26Z"/><path d="M70.61,7.14h5.72V26.57h.1L92,7.14h6.78L82.66,26.42,100,44.87H93.23L79.49,30.12l-3.16,4.19V44.87H70.61Z"/><path d="M103.43,7.14h24.1v5.4H109.15V23.31h15.68v5.07H109.15V39.46h18.38v5.41h-24.1Z"/><path d="M131.6,7.14h14.73A11.56,11.56,0,0,1,154,9.62a10,10,0,0,1,3.75,8.05q-.1,7.68-7.29,10.45l8.74,16.75h-6.8l-7.79-16.13h-7.3V44.87H131.6Zm5.72,16.53H146a6.23,6.23,0,0,0,4.82-1.86,5.82,5.82,0,0,0,1.57-4.14,5,5,0,0,0-1.88-4.27,6.57,6.57,0,0,0-4.2-1.17h-9Z"/><path d="M175.57,7.14h24.09v5.4H181.29V23.31H197v5.07H181.29V39.46h18.37v5.41H175.57Z"/><path d="M203.74,7.14V1.06S220.2,22.33,224,28.28L221.72,28s4.31,5.72,4.48,6h.1V7.14H232V47.79c-.3-.47-17.69-21.53-17.86-21.79,0,0,2.38,1.12,2.38,1.11-.17-.27-6.82-8.8-7-9h-.1V44.87h-5.72Z"/><path d="M250.69,24.09H264.1v7.68c0,1.81,0,4.94,0,7.72a5.64,5.64,0,0,1-5.66,5.66c-2.79,0-5.93,0-7.77,0A13.29,13.29,0,0,1,243.21,43a12.61,12.61,0,0,1-4.4-4.6c-.27-.57-.52-1.11-.75-1.63a10.74,10.74,0,0,1-.51-2,62.82,62.82,0,0,1-.39-8.75,62.79,62.79,0,0,1,.39-8.8,10.24,10.24,0,0,1,1.26-3.59,13.35,13.35,0,0,1,11.83-6.78h7.56a5.61,5.61,0,0,1,5.62,5.54c0,.1.07,5.53.07,5.63h-6.06v-3a2.82,2.82,0,0,0-3-2.54c-3,0-4.22,0-4.22,0a15.15,15.15,0,0,0-3.47.81,7.17,7.17,0,0,0-2.38,1.94,6.22,6.22,0,0,0-1.47,3.13A44.42,44.42,0,0,0,242.9,26a43.4,43.4,0,0,0,.42,7.53,6.31,6.31,0,0,0,1.47,3.19,6.79,6.79,0,0,0,2.38,1.88,6.91,6.91,0,0,0,3.47.86c3.47,0,1.82-.06,4.93-.06s2.77-2.61,2.77-2.61l0-7.29h-7.69Z"/><path d="M269.2,7.14h5.72V44.87H269.2Z"/><path d="M281.11,7.14h5.38L303.57,34h.11V7.14h5.72V44.87H304L286.93,18.06h-.1V44.87h-5.72Z"/><path d="M315.59,7.14h24.09v5.4H321.31V23.31H337v5.07H321.31V39.46h18.37v5.41H315.59Z"/></g></svg>