<svg xmlns="http://www.w3.org/2000/svg" viewBox="0 0 72.43 85.43"><title>makerEngine-logo-black</title><g id="black"><path d="M15.45,31.61,29.26,55.48l-19.49,1L37.5,73.89V45.48Z"/><polygon points="37.5 85.43 72.5 63.43 72.5 23.48 37.5 45.48 37.5 85.43"/><polygon points="44.19 20.59 47.94 20.59 30.16 31.75 37.5 36.36 57.91 23.53 57.91 14.3 44.19 20.59"/><polygon points="17 23.48 22.91 27.19 33.41 20.59 30.08 20.59 44.7 12.88 44.75 6.03 17 23.48"/><polygon points="43.42 8.15 44.75 6.03 35.44 0 34.77 0.42 0 22.09 0 22.79 0 61.78 0.58 62.23 37.5 85.43 37.5 82.48 2.5 60.48 2.5 23.48 35.44 2.95 43.42 8.15"/><polygon points="29.07 20.47 27.91 18.26 48.46 8.14 57.91 14.3 56.58 16.42 48.35 11.02 29.07 20.47"/><polygon points="62.8 17.44 35.1 34.89 37.5 36.36 62.8 20.39 71.17 25.59 72.5 23.48 62.8 17.44"/></g></svg>