<?xml version="1.0" encoding="utf-8"?>
<!-- Generator: Adobe Illustrator 22.1.0, SVG Export Plug-In . SVG Version: 6.00 Build 0)  -->
<svg version="1.1" id="Layer_1" xmlns="http://www.w3.org/2000/svg" xmlns:xlink="http://www.w3.org/1999/xlink" x="0px" y="0px"
	 viewBox="0 0 401.2 106.7" style="enable-background:new 0 0 401.2 106.7;" xml:space="preserve">
<style type="text/css">
	.st0{display:none;}
	.st1{display:inline;}
	.st2{fill:#FFFFFF;}
	.st3{fill:none;stroke:#000000;stroke-miterlimit:10;}
	.st4{fill:#BA1717;}
	.st5{display:inline;fill:none;stroke:#000000;stroke-miterlimit:10;}
	.st6{display:inline;fill:#CE1919;}
	.st7{display:inline;fill:#8D17FF;}
	.st8{display:inline;fill:#13D8E2;stroke:#000000;stroke-width:2;stroke-miterlimit:10;}
	.st9{display:inline;fill:none;stroke:#000000;stroke-width:2;stroke-miterlimit:10;}
	.st10{display:inline;stroke:#000000;stroke-miterlimit:10;}
	.st11{display:inline;fill:none;stroke:#ED1E79;stroke-miterlimit:10;}
	.st12{fill:#565656;}
	.st13{display:inline;fill:#1DFFFF;}
	.st14{display:inline;fill:#13D8E2;}
	.st15{display:inline;fill:none;}
</style>
<g id="Layer_1_1_" class="st0">
	<g class="st1">
		<rect x="5.5" y="59.4" class="st2" width="69" height="69"/>
		<path d="M74,59.9v68H6v-68H74 M75,58.9H5v70h70V58.9L75,58.9z"/>
	</g>
	<g class="st1">
		<path class="st2" d="M49,60.5c-9.2,0-16.7-7.5-16.7-16.7S39.8,27.1,49,27.1s16.8,7.5,16.8,16.7S58.2,60.5,49,60.5z"/>
		<path d="M49,27.6c9,0,16.2,7.3,16.2,16.2c0,9-7.3,16.2-16.2,16.2s-16.2-7.2-16.2-16.2S40.1,27.6,49,27.6 M49,26.6
			c-9.5,0-17.2,7.7-17.2,17.2S39.5,61,49,61s17.2-7.7,17.2-17.2C66.3,34.3,58.5,26.6,49,26.6L49,26.6z"/>
	</g>
	<g class="st1">
		<rect x="40.5" y="33.9" class="st2" width="7.8" height="9.5"/>
		<path d="M47.8,34.4v8.5H41v-8.5H47.8 M48.8,33.4H40v10.5h8.8V33.4L48.8,33.4z"/>
	</g>
	<g class="st1">
		<line class="st3" x1="47.3" y1="48.5" x2="46.1" y2="39.3"/>
	</g>
	<g class="st1">
		<rect x="49.3" y="33.9" class="st2" width="7.8" height="9.5"/>
		<path d="M56.5,34.4v8.5h-6.8v-8.5H56.5 M57.5,33.4h-8.8v10.5h8.8V33.4L57.5,33.4z"/>
	</g>
	<g class="st1">
		<rect x="58" y="33.9" class="st2" width="7.8" height="9.5"/>
		<path d="M65.3,34.4v8.5h-6.8v-8.5H65.3 M66.3,33.4h-8.8v10.5h8.8V33.4L66.3,33.4z"/>
	</g>
	<g class="st1">
		<line class="st3" x1="60.4" y1="56.7" x2="58.9" y2="47.5"/>
	</g>
	<g class="st1">
		<polygon class="st4" points="5.9,69.9 40,48.5 46.3,52.5 12.3,73.9 		"/>
		<path d="M40,49.1l5.4,3.4L12.3,73.3l-5.4-3.4L40,49.1 M40,47.9l-35,22l7.3,4.6l35-22L40,47.9L40,47.9z"/>
	</g>
	<g class="st1">
		<polygon class="st2" points="5.9,69.9 12.3,65.9 46.3,87.3 40,91.3 		"/>
		<path d="M12.3,66.5l33.1,20.8L40,90.7L6.9,69.9L12.3,66.5 M12.3,65.3L5,69.9l35,22l7.3-4.6L12.3,65.3L12.3,65.3z"/>
	</g>
	<g class="st1">
		<polygon class="st2" points="33.7,87.3 67.7,65.9 74.1,69.9 40,91.3 		"/>
		<path d="M67.7,66.5l5.4,3.4L40,90.7l-5.4-3.4L67.7,66.5 M67.7,65.3l-35,22l7.3,4.6l35-22L67.7,65.3L67.7,65.3z"/>
	</g>
	<g class="st1">
		<polygon class="st2" points="19.1,78.2 53.2,56.8 59.5,60.7 25.4,82.1 		"/>
		<path d="M53.2,57.4l5.4,3.4L25.4,81.5L20,78.2L53.2,57.4 M53.2,56.2l-35,22l7.3,4.6l35-22L53.2,56.2L53.2,56.2z"/>
	</g>
	<line class="st5" x1="22.5" y1="95.5" x2="22.5" y2="80.9"/>
	<polygon class="st6" points="14.1,33.1 21.3,37.6 -13.7,59.6 -48.7,37.6 -13.7,15.6 -6.4,20.2 -34.2,37.6 -28.3,41.4 -0.5,23.9 
		6.7,28.5 -21,45.9 -13.7,50.5 	"/>
	<g class="st1">
		<polygon class="st2" points="5.9,106.9 12.3,102.9 46.3,124.3 40,128.3 		"/>
		<path d="M12.3,103.5l33.1,20.8l-5.4,3.4L6.9,106.9L12.3,103.5 M12.3,102.3L5,106.9l35,22l7.3-4.6L12.3,102.3L12.3,102.3z"/>
	</g>
	<polygon class="st7" points="-54.6,82.7 -37.1,108.4 -19.6,104.7 -19.6,141.7 -54.6,119.7 	"/>
	<g class="st1">
		<path class="st2" d="M40.1,136.8c-4.4,0-8-3.6-8-8c0-4.4,3.6-8,8-8c4.2,0,7.7,3.3,8,7.5h-8v1l8,0.3
			C47.6,133.7,44.1,136.8,40.1,136.8z"/>
		<path d="M40.1,121.3c3.8,0,7,2.8,7.4,6.5h-7.4v2l7.4,0.3c-0.6,3.5-3.8,6.2-7.4,6.2c-4.1,0-7.5-3.4-7.5-7.5
			C32.6,124.7,35.9,121.3,40.1,121.3 M40.1,120.3c-4.7,0-8.5,3.8-8.5,8.5s3.8,8.5,8.5,8.5c4.5,0,8.3-3.6,8.5-8.2l-8.5-0.4h8.5
			C48.6,124.2,44.7,120.3,40.1,120.3L40.1,120.3z"/>
	</g>
	<g class="st1">
		<path class="st2" d="M5,114.9c-4.4,0-8-3.6-8-8s3.6-8,8-8c4.2,0,7.7,3.3,8,7.5H5v1l8,0.3C12.5,111.7,9.1,114.9,5,114.9z"/>
		<path d="M5,99.4c3.8,0,7,2.8,7.4,6.5H5v2l7.4,0.3c-0.6,3.5-3.8,6.2-7.4,6.2c-4.1,0-7.5-3.4-7.5-7.5S0.9,99.4,5,99.4 M5,98.4
			c-4.7,0-8.5,3.8-8.5,8.5s3.8,8.5,8.5,8.5c4.5,0,8.3-3.6,8.5-8.2L5,106.9h8.5C13.5,102.2,9.7,98.4,5,98.4L5,98.4z"/>
	</g>
	<line class="st5" x1="12.3" y1="105.9" x2="12.3" y2="74.5"/>
	<g class="st1">
		<rect x="8.9" y="103.4" class="st2" width="2.8" height="2.3"/>
		<path d="M11.3,103.9v1.3H9.5v-1.3H11.3 M12.3,102.9H8.5v3.3h3.8V102.9L12.3,102.9z"/>
	</g>
	<path class="st8" d="M285.7,59.6"/>
	<line class="st9" x1="314.8" y1="68.4" x2="314.8" y2="118.6"/>
	<line class="st9" x1="286.5" y1="51.9" x2="286.5" y2="102.1"/>
	<rect x="38.7" y="115.6" class="st10" width="3.9" height="8.4"/>
	<g class="st1">
		<line class="st3" x1="26" y1="120.3" x2="26" y2="88"/>
	</g>
	<polygon class="st11" points="52.5,101.3 67.4,128.7 84.5,124 84.5,117.9 67.4,122.6 52.5,95.2 	"/>
	<rect x="19.4" y="112.9" class="st10" width="3.2" height="8.4"/>
	<rect x="27.9" y="108.7" class="st10" width="3.9" height="8.4"/>
</g>
<g id="Layer_7">
	<g id="word-font">
		<path d="M61.1,48.3h5.4l10.8,20.6l10.6-20.6h5.4V86h-5.7V62.5h-0.1l-7.9,14.1l-2.4,4.3L66.9,62.5h-0.1V86H61L61.1,48.3L61.1,48.3z
			"/>
		<path d="M118.3,72.7h-10.9L102.8,86h-6l13.7-37.7h4.8L129,86h-6L118.3,72.7z M116.6,67.2L112.9,56h-0.1l-3.7,11.1L116.6,67.2
			L116.6,67.2z"/>
		<path d="M132.4,48.3h5.7v19.4h0.1l15.6-19.4h6.8l-16.1,19.3L161.8,86H155l-13.7-14.8l-3.2,4.2V86h-5.7L132.4,48.3L132.4,48.3z"/>
		<path d="M165.2,48.3h24.1v5.4h-18.4v10.8h15.7v5.1h-15.7v11.1h18.4V86h-24.1V48.3z"/>
		<path d="M193.4,48.3h14.7c2.8-0.1,5.5,0.8,7.7,2.5c2.4,2,3.8,4.9,3.8,8c-0.1,5.1-2.5,8.6-7.3,10.5l8.7,16.8h-6.8L206.4,70h-7.3v16
			h-5.7V48.3L193.4,48.3z M199.1,64.8h8.7c1.8,0.1,3.6-0.6,4.8-1.9c1-1.1,1.6-2.6,1.6-4.1c0.1-1.6-0.6-3.2-1.9-4.3
			c-1.2-0.9-2.7-1.3-4.2-1.2h-9L199.1,64.8z"/>
		<path d="M237.4,48.3h24.1v5.4h-18.4v10.8h15.7v5.1h-15.7v11.1h18.4V86h-24.1L237.4,48.3L237.4,48.3z"/>
		<path d="M312.5,65.2h13.4v7.7c0,1.8,0,4.9,0,7.7c0,3.1-2.5,5.6-5.6,5.7l0,0c-2.8,0-5.9,0-7.8,0c-2.6,0-5.2-0.7-7.5-2.2
			c-1.8-1.1-3.4-2.7-4.4-4.6c-0.3-0.6-0.5-1.1-0.8-1.6c-0.2-0.6-0.4-1.3-0.5-2c-0.3-2.9-0.5-5.8-0.4-8.8c-0.1-2.9,0.1-5.9,0.4-8.8
			c0.2-1.3,0.6-2.5,1.3-3.6c2.4-4.3,6.9-6.9,11.8-6.8h7.6c3.1,0,5.6,2.5,5.6,5.5c0,0.1,0.1,5.5,0.1,5.6h-6.1v-3
			c-0.1-1.5-1.5-2.6-3-2.5c-3,0-4.2,0-4.2,0c-1.2,0.1-2.3,0.4-3.5,0.8c-0.9,0.5-1.7,1.1-2.4,1.9c-0.8,0.9-1.3,2-1.5,3.1
			c-0.3,2.5-0.5,5.1-0.4,7.6c-0.1,2.5,0.1,5,0.4,7.5c0.2,1.2,0.7,2.3,1.5,3.2c0.6,0.8,1.5,1.4,2.4,1.9c1.1,0.6,2.3,0.9,3.5,0.9
			c3.5,0,1.8-0.1,4.9-0.1s2.8-2.6,2.8-2.6v-7.3h-7.7L312.5,65.2z"/>
		<path d="M331,48.3h5.7V86H331V48.3z"/>
		<path d="M342.9,48.3h5.4l17.1,26.9h0.1V48.3h5.7V86h-5.4l-17.1-26.8h-0.1V86h-5.7L342.9,48.3L342.9,48.3z"/>
		<path d="M265.5,48.3h5.4L288,75.2h0.1V48.3h5.7V86h-5.4l-17.1-26.8h-0.1V86h-5.7V48.3z"/>
		<path d="M377.4,48.3h24.1v5.4h-18.4v10.8h15.7v5.1h-15.7v11.1h18.4V86h-24.1V48.3z"/>
	</g>
</g>
<g id="Layer_2_1_" class="st0">
	<g class="st1">
		<polygon class="st12" points="18.7,107 -16.3,85 -16.3,48 18.7,70 		"/>
	</g>
	<g class="st1">
		<polygon class="st12" points="18.7,107 53.7,85 53.7,48 18.7,70 		"/>
	</g>
	<path class="st13" d="M11.4,56.3l7.3,4.6C26.5,56,34.2,51.2,42,46.3c1.5-0.9,3-1.9,4.5-2.8c2.4,1.5,4.8,3,7.3,4.6L18.7,70l-35-22
		l35-22l7.3,4.6L-1.8,48l5.9,3.7c0.1,0,10.4-6.6,10.5-6.6h-3.3c0,0,20.4-10.8,20.6-10.8c2.4,1.5,7.3,4.6,7.3,4.6l-13.7,6.3h3.7
		C29.1,45.1,15.1,53.9,11.4,56.3z"/>
	<path class="st14" d="M18.7,107l-35-22V48c0.3,0.2,12.9,8.1,12.9,8.1L10.5,80L-9,81c0,0,17.1,10.7,27.7,17.4
		C18.7,101.3,18.7,104.1,18.7,107z"/>
</g>
<g id="Layer_4" class="st0">
	<g class="st1">
		<polygon class="st12" points="39.1,48.1 39.1,38.8 25.4,45.1 29.1,45.1 11.4,56.3 18.7,60.9 		"/>
	</g>
	<g class="st1">
		<polygon class="st12" points="-1.8,48 4.1,51.7 14.6,45.1 11.3,45.1 25.9,37.4 26,30.6 		"/>
	</g>
</g>
<g id="LOGO" class="st0">
	<path class="st10" d="M38.3,49.5l17.6-11.1l-6.2-3.9L32.4,45.3c-4.7,2.9-7.7,7.8-8.3,13.2L36.3,51C36.9,50.4,37.6,49.9,38.3,49.5z"
		/>
	<path class="st10" d="M23.9,82.9l5.9,3.7V64.8c0-2.2,0.4-4.3,1.1-6.3L23.8,63v19.9H23.9z"/>
	<path class="st10" d="M21.2,60.3v-0.9c0-6.2,3.2-12,8.5-15.3L47.3,33L41,29L23.7,39.9c-5.3,3.3-8.5,9.1-8.5,15.3v3.5l2.7,3.6
		L21.2,60.3z"/>
	<polygon class="st10" points="15.2,63.2 15.2,77.4 21.2,81.2 21.2,64.8 18,66.8 	"/>
	<path class="st10" d="M12.5,53.9c0-6.2,3.2-12,8.5-15.3l17.6-11.1l-6.2-3.9L15,34.4c-4.6,2.9-7.7,7.8-8.3,13.1l5.8,7.5V53.9z"/>
	<polygon class="st10" points="6.5,71.9 12.5,75.7 12.5,59.6 6.5,51.9 	"/>
</g>
<g id="Layer_6" class="st0">
	<path class="st10" d="M64.2,34L44,46.6c-6.1,3.9-9.9,10.6-9.9,17.8v14.7l6.9-6.3v-3.5c0-7.2,3.7-14,9.9-17.8l20.5-12.9L64.2,34z"/>
	<path class="st10" d="M30.3,82.7V62.4c0-7.2,3.7-14,9.9-17.8l20.4-12.9l-7.3-4.6L33.2,39.8c-6.1,3.9-9.9,10.6-9.9,17.8V83l3.2,3
		L30.3,82.7z"/>
	<path class="st10" d="M19.5,55.8c0-7.2,3.7-14,9.9-17.8l20.5-12.9l-7.3-4.6L22.5,33.1c-6.2,3.8-9.9,10.6-9.9,17.8v21.9l6.9,6.6
		C19.5,79.4,19.5,55.8,19.5,55.8z"/>
</g>
<g id="Layer_2_2_" class="st0">
	<path class="st10" d="M14.9,49.6c0-7.2,3.7-14,9.9-17.8l20.5-12.9L38,14.3L17.9,26.9C11.7,30.7,8,37.5,8,44.7V68l6.9,4.3
		C14.9,72.2,14.9,49.6,14.9,49.6z"/>
	<path class="st10" d="M25.6,56.2c0-7.2,3.7-14,9.9-17.8L56,25.5l-7.3-4.6L28.6,33.5c-6.2,3.8-9.9,10.6-9.9,17.8v23.2l6.9,4.3
		C25.6,78.9,25.6,56.2,25.6,56.2z"/>
	<path class="st10" d="M36.4,63.1c0-7.2,3.7-14,9.9-17.8l20.5-12.9l-7.3-4.6L39.4,40.4c-6.2,3.8-9.9,10.6-9.9,17.8v23.1l6.9,4.3
		V63.1z"/>
</g>
<g id="Layer_5">
	<path d="M14.8,49.5c0-7.2,3.7-14,9.9-17.8l20.5-12.9l-5.7-3.5L19.4,27.9c-6.2,3.8-9.9,10.6-9.9,17.8V69l5.3,3.3
		C14.8,72.2,14.8,49.5,14.8,49.5z"/>
	<path d="M25.5,56.1c0-7.2,3.7-14,9.9-17.8l20.5-12.9l-7.3-4.6L28.5,33.4c-6.2,3.8-9.9,10.6-9.9,17.8V56L23.2,77
		C23.2,77.1,25.5,56.1,25.5,56.1z"/>
	<path d="M36.3,63c0-7.2,3.7-14,9.9-17.8l20.5-12.9l-7.3-4.6L39.3,40.3c-6.2,3.8-11.2,8.6-9.9,17.8l4.2,25.7l2.7,1.7V63z"/>
</g>
<g id="Layer_6_1_" class="st0">
	<path class="st1" d="M30.6,86.3l8.5-5.3V63.5c0-5-0.1-9.6,4.8-13.7l16.3-13v-5.1L39.7,44.4c-5.6,3.6-9.2,10-9.2,16.7V86.3z"/>
	<path class="st1" d="M14.5,52.9c0-7.2,3.7-14,9.9-17.8l20.5-12.9l-5.7-3.5L19.1,31.3c-6.2,3.8-9.9,10.6-9.9,17.8v23.3l5.3,3.3
		C14.5,75.6,14.5,52.9,14.5,52.9z"/>
	<path class="st1" d="M25.2,59.5c0-7.2,3.7-14,9.9-17.8l20.5-12.9l-7.3-4.6L28.2,36.8c-6.2,3.8-9.9,10.6-9.9,17.8v4.8l4.6,20.9
		C22.9,80.5,25.2,59.5,25.2,59.5z"/>
</g>
<g id="Layer_4_1_" class="st0">
	<path class="st1" d="M24.8,46c0-7.2,3.7-14,9.9-17.8l20.1-12.7L50.5,13L30.8,25.4c-6.2,3.8-9.9,10.6-9.9,17.8v36.2l3.9,2.5V46z"/>
	<path class="st1" d="M30.2,56.7c0-7.2,3.7-14,9.9-17.8L60.6,26l-5.7-3L34.8,35.6c-6.2,3.8-9.9,10.6-9.9,17.8v11.4l5.3,21.3
		C30.2,86.1,30.2,56.7,30.2,56.7z"/>
	<path class="st1" d="M37.1,67.1c0-7.2,3.7-14,9.9-17.8l20.5-12.9l-7.3-4.6L40.1,44.4c-6.2,3.8-9.9,10.6-9.9,17.8v23.9L37.1,72V67.1
		z"/>
</g>
<g id="Layer_9" class="st0">
	<path class="st1" d="M37,86.1l8.5-5.3V62.3c0-5,1.7-9.8,4.8-13.7l16.3-17.2L46.2,44.2c-5.6,3.6-9.2,10-9.2,16.7V86.1z"/>
	<path class="st1" d="M58.7,26.1L39,38.4c-6,3.8-9.6,10.4-9.6,17.4v25.3l7.6,5V61.4c0-7.1,3.6-13.7,9.6-17.4l20-12.6L58.7,26.1z"/>
	<path class="st1" d="M49,19.9L29.4,32.2c-6,3.8-9.6,10.4-9.6,17.4V58l2.9,9.8l3-5.8v-8c0-7.1,3.6-13.7,9.6-17.4l20-12.6L49,19.9z"
		/>
	<path class="st1" d="M40.6,14.7L20.9,27c-6,3.8-9.6,10.4-9.6,17.4v25.3l4.6,2.9V47.9c0-7.1,3.6-13.7,9.6-17.4l20.1-12.7L40.6,14.7z
		"/>
</g>
<g id="Layer_2" class="st0">
	<g id="Layer_9_1_" class="st1">
		<path d="M54,31.9l-13.3,7.5c-6,3.8-9.6,10.4-9.6,17.4v29.5h6.7V61.6c0-7.1,3.6-13.7,9.6-17.4L61,36.4L54,31.9z"/>
		<path d="M53.2,19.8l-23,12.9c-6,3.8-9.6,10.4-9.6,17.4v14.4l2.9,9.8l3.8-5.4v-14c0-7.1,3.6-13.7,9.6-17.4l23.4-13.2L53.2,19.8z"/>
		<path d="M56.7,9.5L22.5,27.9c-6,3.8-9.6,10.4-9.6,17.4v41h3.7V48.4c0-7.1,3.6-13.7,9.6-17.4l34.6-18.8L56.7,9.5z"/>
	</g>
	<line class="st15" x1="37.7" y1="86.3" x2="-11" y2="86.3"/>
	<line class="st15" x1="87.8" y1="21.4" x2="60.2" y2="3.8"/>
</g>
<g id="Layer_3_1_" class="st0">
	<g class="st1">
		<path d="M54.7,39.1v22.4c0,5.5-3.7,12.6-8.1,15.8l-12.4,8.9c-4.5,3.2-8.1,5.8-8.2,5.8c0,0,0,0.3,0,0.6s0,0.6,0,0.5
			c0,0,3.7-2.6,8.2-5.8l13.3-9.5c4.5-3.2,8.1-10.3,8.1-15.8V38.5"/>
	</g>
	<g id="Layer_9_2_" class="st1">
		<path d="M47.7,33.2L28,45.5c-6,3.8-9.6,10.4-9.6,17.4v25.3l7.6,5V68.5c0-7.1,3.6-13.7,9.6-17.4l20-12.6L47.7,33.2z"/>
		<path d="M38,27.1L18.4,39.4c-6,3.8-9.6,10.4-9.6,17.4v8.4l2.9,9.8l3-5.8v-8c0-7.1,3.6-13.7,9.6-17.4l20-12.6L38,27.1z"/>
		<path d="M29.6,21.8L9.9,34.1c-6,3.8-9.6,10.4-9.6,17.4v25.3l4.6,2.9V55.1c0-7.1,3.6-13.7,9.6-17.4L34.6,25L29.6,21.8z"/>
	</g>
</g>
</svg>
